PathFileType	4	(X/Y/Z)	C:/Users/opensim2020/Desktop/walking_exp_matlab/subject02_walking15_straight_01.trc	
DataRate	CameraRate	NumFrames	NumMarkers	Units	OrigDataRate	OrigDataStartFrame	OrigNumFrames	
100.00	100.00	4	42	mm	100.00	408	165	
Frame#	Time	LFHD			RFHD			LBHD			RBHD			C7			T10			CLAV			STRN			RBAK			LSHO			LUPA			LELB			LFRM			LWRA			LWRB			LFIN			RSHO			RUPA			RELB			RFRM			RWRA			RWRB			RFIN			LASI			RASI			LPSI			RPSI			LTHI			LKNE			LTIB			LANK			LHEE			LTOE			RTHI			RKNE			RTIB			RANK			RHEE			RTOE			*39			*40			*41			
		X1	Y1	Z1	X2	Y2	Z2	X3	Y3	Z3	X4	Y4	Z4	X5	Y5	Z5	X6	Y6	Z6	X7	Y7	Z7	X8	Y8	Z8	X9	Y9	Z9	X10	Y10	Z10	X11	Y11	Z11	X12	Y12	Z12	X13	Y13	Z13	X14	Y14	Z14	X15	Y15	Z15	X16	Y16	Z16	X17	Y17	Z17	X18	Y18	Z18	X19	Y19	Z19	X20	Y20	Z20	X21	Y21	Z21	X22	Y22	Z22	X23	Y23	Z23	X24	Y24	Z24	X25	Y25	Z25	X26	Y26	Z26	X27	Y27	Z27	X28	Y28	Z28	X29	Y29	Z29	X30	Y30	Z30	X31	Y31	Z31	X32	Y32	Z32	X33	Y33	Z33	X34	Y34	Z34	X35	Y35	Z35	X36	Y36	Z36	X37	Y37	Z37	X38	Y38	Z38	X39	Y39	Z39	X40	Y40	Z40	X41	Y41	Z41	X42	Y42	Z42	

21	0.200	1516.60144	-1013.86719	1721.78467	1661.31921	-1019.67609	1708.48682	1508.16870	-1150.93665	1660.15417	1650.12341	-1168.46350	1645.43945	1589.94727	-1219.93982	1523.12500	1593.17236	-1284.53333	1248.67664	1567.89648	-1086.06799	1450.57214	1573.55017	-1038.49194	1277.83276	1659.30676	-1280.99609	1349.90173	1406.31262	-1168.89844	1495.43201	1310.79028	-1228.35254	1313.74146	1275.13696	-1265.10828	1186.93738	1231.87964	-1297.88293	1067.83679	1209.25598	-1279.57727	931.78278	1198.86841	-1330.04602	954.42755	1170.43787	-1334.66809	895.77594	1768.16260	-1134.08252	1486.59656	1865.77026	-1140.25342	1300.37268	1889.65002	-1106.19666	1158.33374	1911.75696	-1055.55823	1050.98608	1896.87451	-986.58044	934.61365	1931.55908	-1029.14819	924.24060	1937.36218	-978.77380	872.63715	1442.34790	-1071.30872	987.97382	1695.58606	-1073.28271	961.24084	1520.96948	-1278.27539	1034.36462	1635.87402	-1281.74390	1032.05627	1365.63623	-1061.67578	689.66260	1401.00537	-1025.80261	493.11557	1427.69995	-1069.86865	306.17740	1469.15295	-1046.55969	86.09521	1531.27600	-1060.83606	61.16215	1416.34766	-905.59082	55.20326	1750.67126	-1196.09680	664.90063	1710.39331	-1236.07507	457.38586	1720.17566	-1304.21680	281.91846	1685.83936	-1343.93115	89.85282	1633.42615	-1382.83167	33.95657	1696.07947	-1193.63721	30.89136	1603.31836	-1110.54675	1799.54993	-3357.46753	2845.90063	1034.33264			 
22	0.210	1518.50757	-1005.10754	1721.40955	1662.31226	-1009.54333	1706.82117	1509.72046	-1141.19092	1658.39355	1651.71228	-1158.42688	1643.57886	1591.43420	-1209.57190	1521.36279	1594.43152	-1274.58508	1247.27722	1569.42163	-1075.60339	1448.60034	1574.94629	-1028.94116	1275.56238	1660.52026	-1270.83374	1348.18103	1407.87659	-1158.53503	1493.57556	1312.92200	-1221.05896	1313.21301	1277.20679	-1260.96863	1187.59399	1233.62134	-1297.63867	1070.18726	1210.13916	-1283.80737	933.14063	1200.14502	-1333.08057	958.39502	1171.27478	-1340.26575	899.70673	1769.63281	-1123.86523	1485.13208	1867.13013	-1128.92151	1298.91467	1891.59888	-1093.04248	1157.43298	1913.42041	-1040.09045	1050.38452	1898.00854	-969.13580	935.86462	1932.64355	-1011.44983	924.49176	1938.26697	-959.89380	873.85620	1443.66772	-1061.59009	985.67853	1697.31653	-1063.82349	959.58636	1522.16956	-1268.59497	1032.71350	1636.89001	-1272.45837	1030.52661	1367.28540	-1052.04822	687.22394	1404.75476	-1014.56195	490.87357	1431.33801	-1050.03870	301.92108	1470.31030	-1015.44739	82.39712	1532.43567	-1027.97424	56.62763	1416.26575	-873.67078	57.83924	1751.58179	-1189.35864	663.76410	1710.83374	-1231.81653	456.70633	1720.26746	-1301.78467	281.99185	1685.53394	-1343.40747	90.44524	1632.87573	-1382.54358	34.72730	1696.25696	-1193.39990	30.88656	1605.03992	-1101.41003	1798.13733	-3360.32861	2845.24707	1034.24390			 
23	0.220	1519.51453	-995.39948	1719.73145	1663.78088	-999.91418	1705.68701	1511.16626	-1131.43115	1656.43933	1653.18689	-1148.35242	1641.58777	1592.81848	-1199.12415	1519.47668	1595.54395	-1264.40857	1245.65259	1570.74658	-1065.09131	1446.50354	1576.82031	-1018.24005	1273.45776	1662.05225	-1260.83142	1346.91772	1409.34790	-1148.17126	1491.72119	1314.90466	-1213.73755	1312.13562	1279.30725	-1256.52881	1188.19885	1235.46033	-1296.80261	1072.08789	1211.41516	-1287.27563	934.78174	1201.51294	-1335.85144	961.37506	1172.57141	-1344.97302	903.30945	1770.98828	-1113.32520	1483.50330	1868.25586	-1117.67151	1297.31152	1893.22388	-1079.84143	1156.20081	1914.76013	-1024.96899	1050.11438	1899.00000	-951.89734	937.09637	1933.44043	-993.72162	924.54608	1938.98340	-941.36755	875.20746	1444.92615	-1051.92041	983.34467	1698.94922	-1054.38757	957.98499	1523.16272	-1258.78845	1030.82166	1637.72351	-1263.06006	1028.81506	1370.05933	-1043.21948	683.86847	1408.56897	-1003.27661	488.64459	1434.54175	-1030.74573	298.35458	1471.20068	-985.48785	79.75005	1533.38647	-996.58978	53.58131	1416.00659	-842.75311	61.28312	1752.62036	-1182.55322	662.72260	1711.23608	-1227.41370	456.10318	1720.53333	-1299.48096	282.26141	1685.09192	-1342.60083	90.79654	1632.38281	-1382.44092	35.80572	1696.39307	-1193.20361	30.83082	1606.27698	-1091.81067	1796.24463	-3357.16040	2845.98853	1034.32214			 
24	0.230	1520.72668	-985.91028	1718.31409	1664.93555	-990.01440	1704.17737	1512.51343	-1121.46997	1654.35242	1654.48706	-1138.09863	1639.46191	1594.24854	-1188.84937	1517.66663	1596.55408	-1254.13818	1243.87878	1571.85291	-1054.49390	1444.24658	1578.09277	-1008.06104	1271.13867	1663.04529	-1250.30029	1344.87402	1410.66821	-1137.73657	1489.75940	1316.51160	-1207.10522	1312.11157	1281.24463	-1252.29395	1188.79907	1237.36658	-1295.99377	1074.31531	1212.65271	-1290.18469	936.34424	1203.34583	-1337.85828	964.34869	1174.36938	-1349.04578	906.87738	1772.38086	-1103.13184	1481.91479	1869.27136	-1106.52527	1295.55627	1894.94958	-1066.94202	1154.80920	1915.96497	-1009.86890	1049.42944	1899.64270	-934.62170	938.07294	1934.16187	-976.35608	924.67188	1939.77563	-923.04114	876.50323	1446.02295	-1042.02747	980.80878	1700.30688	-1044.92273	956.12256	1524.20056	-1249.02905	1029.01404	1638.43982	-1253.51099	1026.89807	1372.14990	-1034.94946	680.72168	1412.30933	-991.89935	486.51785	1437.03442	-1011.48053	294.78391	1471.77612	-956.58502	77.97005	1533.90088	-966.16571	51.08644	1415.49158	-813.20959	64.94462	1753.63782	-1175.58508	661.50677	1711.95728	-1222.94836	455.50012	1720.61865	-1296.74902	282.29565	1684.86609	-1341.85474	91.33413	1631.81958	-1381.85266	36.35505	1696.55945	-1192.99939	30.70186	1607.51416	-1082.25842	1794.30847	-3357.21387	2845.82202	1034.43250			 
